<?xml version="1.0" encoding="UTF-8"?>
<svg xmlns="http://www.w3.org/2000/svg" viewBox="0 0 182.7 182.7">
  <defs>
    <style>
      .cls-1 {
        fill: #373f1a;
      }

      .cls-1, .cls-2, .cls-3, .cls-4, .cls-5, .cls-6, .cls-7 {
        mix-blend-mode: difference;
        stroke: #1d1d1b;
        stroke-miterlimit: 10;
      }

      .cls-1, .cls-2, .cls-3, .cls-4, .cls-6, .cls-7 {
        stroke-width: 1.74px;
      }

      .cls-2 {
        fill: #efe400;
      }

      .cls-8 {
        isolation: isolate;
      }

      .cls-3 {
        fill: #658fca;
      }

      .cls-4 {
        fill: #5a6631;
      }

      .cls-5 {
        fill: #1d71b8;
        stroke-width: 1.61px;
      }

      .cls-6 {
        fill: #1d1d1b;
      }

      .cls-7 {
        fill: #e4dac4;
      }
    </style>
  </defs>
  <g class="cls-8">
    <g id="Calque_1" data-name="Calque 1">
      <polygon class="cls-6" points="184.74 .74 219.48 21.77 238.65 21.77 238.65 .68 184.74 .74"/>
      <polygon class="cls-6" points="183.44 85.21 96.03 85.26 96.03 73.97 -22 73.97 154.08 .71 184.74 .71 183.44 85.21"/>
      <path class="cls-6" d="M41.89.74S-20.77,17.36-25.57,94.12V.74H41.89Z"/>
      <path class="cls-7" d="M41.89,187.28s-62.66-16.62-67.46-93.38v93.38s67.46,0,67.46,0Z"/>
      <polygon class="cls-5" points="151.44 .74 222.51 43.89 202.77 96.48 177.45 96.48 173.16 145.17 147.49 145.17 147.49 169.08 85.91 169.08 72.41 187.5 238.65 187.5 238.65 176.51 238.65 44.4 238.65 21.77 219.48 21.77 184.74 .74 151.44 .74"/>
      <path class="cls-7" d="M107.32,45.08l40.03,26.48,37.39-25.8,4.24,1.68-8.22,44.76,40.24,26.49s-14.05,8.18-14.43,17.92c-.38,9.74-14.05,15.19-15.57,19.48-1.52,4.28-6.26,11.31-6.26,11.31l-37.39-46.41-74.93,5.19-1.65-54.62h22.39l14.16-26.48Z"/>
      <path class="cls-6" d="M60.29,122.29v6.78h-18.4s-9.77-6.78-9.77-6.78l-.33,37.35h16.99v27.61s-74.35,4.75-74.35-93.3l85.86-.08v28.41Z"/>
      <polygon class="cls-1" points="64.77 187.5 -7.69 145.17 -7.69 94.12 33.2 122 33.2 146.79 89.2 144.88 110.23 171.27 86.41 172.44 75.43 187.5 64.77 187.5"/>
      <path class="cls-4" d="M50.68,146.2s6.15,18.07,16.52,17.29c10.37-.78,18.44-8.2,23.82-4.88,5.38,3.32,19.21,12.67,19.21,12.67l-21.02-26.39-20.43-4.07-18.08,5.38Z"/>
      <path class="cls-7" d="M60.29,65.71v-6.78h-18.4l-9.77,6.78-.33-37.35h16.99V.74S-25.57-4.01-25.57,94.04l85.86.08v-28.41Z"/>
      <path class="cls-2" d="M-7.69,94.12l40.9,27.88v24.8h27.35s8.61,8.44,18.68,0,26.97,10.26,33.88-1.42c6.91-11.69,16.52-26.88,16.52-26.88l56.47.78-11.91-18.31h-10.37l3.84,10.13h-21.51s.1-17.19-24.53-16.97c-24.64.22-44.61,3.72-48.84-11.47h-21.56l-.53,23.57h-18.06v-23.57H13.73v-18.5l-21.42,5.02v24.95Z"/>
      <polygon class="cls-3" points="68.77 .74 46.46 55.97 81.76 55.97 97.16 20.91 129.05 21.3 145.74 .74 68.77 .74"/>
      <polygon class="cls-5" points="21.79 47.43 31.89 47.43 31.89 38.83 35.11 38.83 39.11 55.97 46.46 55.97 68.77 .74 48.78 .74 48.78 28.36 31.78 28.36 31.78 21.3 21.87 21.3 21.79 47.43"/>
      <polygon class="cls-1" points="155.17 34.55 167.39 34.55 186.1 45.76 175.72 55.97 176.39 64.15 148.26 71.55 148.26 47.43 167.18 47.43 155.17 34.55"/>
      <path class="cls-4" d="M119.45,84.02v-8.53h28.81s3.5,13.2,8.28,10.47,7.47-4.28,7.86-14.41h9l-13.33,22.57-19.66-11.28-20.96,1.18Z"/>
      <polygon class="cls-2" points="50.68 45.66 70.77 45.66 70.77 21.34 129.05 21.34 147.43 .68 68.77 .68 50.68 45.66"/>
      <polygon class="cls-7" points="147.49 145.17 164.28 187.5 203.47 167.39 169.55 140.81 147.49 145.17"/>
      <polygon class="cls-7" points="50.68 133.1 68.74 145.17 87.76 133.1 107.54 145.17 131.35 105.05 107.54 96.77 50.68 133.1"/>
      <polygon class="cls-6" points="-7.69 94.12 13.73 82.65 58.95 107.19 58.51 128.27 -7.69 94.12"/>
      <polygon class="cls-4" points="98.22 37.05 98.22 26.2 135.12 26.2 151.24 12.69 167.39 34.55 155.17 34.55 149.72 28.36 138.87 37.05 98.22 37.05"/>
    </g>
  </g>
</svg>