<?xml version="1.0" encoding="UTF-8"?>
<svg id="Calque_1" data-name="Calque 1" xmlns="http://www.w3.org/2000/svg" viewBox="0 0 201.93 201.96">
  <defs>
    <style>
      .cls-1 {
        fill: #808ec7;
      }

      .cls-1, .cls-2, .cls-3 {
        stroke-width: 0px;
      }

      .cls-2 {
        fill: #aadcf1;
      }

      .cls-3 {
        fill: #c3d9ea;
      }
    </style>
  </defs>
  <rect class="cls-1" width="201.93" height="201.96" transform="translate(201.93 201.96) rotate(180)"/>
  <path class="cls-2" d="M8.1,77.51c8.98-13.51,21.43-21.05,36.65-22.42,21.26-1.91,37.44,7.81,48.68,27.13,4.44,7.63,6.75,16.26,6.82,25.38.1,12.62.06,25.24.06,37.87,0,14.33,3.91,27.18,12.81,37.87,9.51,11.41,21.24,18.09,35.73,18.53,7.93.24,15.58-.77,22.84-4.46,14.03-7.14,23.41-18.55,28.13-34.65,1.69-5.77,2.07-11.53,2.05-17.46-.03-11.65.04-23.3,0-34.95-.09-23.66-6.41-45.13-19.21-64.38-5.09-7.65-10.92-14.51-17.56-20.51-12.17-11-26.05-18.43-41.49-22.36-19.2-4.88-38.12-3.91-56.75,3.15-15.5,5.87-28.91,15.32-40.2,28.22C14.22,48.67,5.87,65.31,1.57,84.32c-.64,2.81-1.08,5.66-1.63,8.57,2.75-5.24,5.02-10.65,8.17-15.39Z"/>
  <path class="cls-3" d="M45.32,153.41c.47.4.88.72,1.25,1.07.38.36.73.74,1.08,1.13,3.28,3.63,4.79,7.9,4.52,12.78-.23,4.3-1.87,8.03-4.87,11.09-3.53,3.59-7.86,5.32-12.93,5.3-11.13-.04-22.26-.01-33.39,0-.94,0-.96.02-.96.94,0,5.15,0,10.3,0,15.45,0,.84.02.85.83.85,9.86,0,19.72,0,29.58,0,2.29,0,4.58.03,6.87-.13,5.49-.38,10.26-2.6,14.42-6.12,3.06-2.6,5.36-5.79,6.96-9.49,1.86-4.3,2.45-8.77,1.89-13.39-.56-4.61-2.26-8.75-5.08-12.47-1.92-2.52-4.23-4.56-6.82-6.35-1.06-.73-2.12-.66-3.35-.63Z"/>
</svg>