<?xml version="1.0" encoding="UTF-8"?>
<svg id="Calque_1" data-name="Calque 1" xmlns="http://www.w3.org/2000/svg" viewBox="0 0 202 202">
  <defs>
    <style>
      .cls-1 {
        fill: #966;
      }

      .cls-1, .cls-2, .cls-3 {
        stroke-width: 0px;
      }

      .cls-2 {
        fill: #ec6568;
      }

      .cls-3 {
        fill: #f9cbcc;
      }
    </style>
  </defs>
  <polygon class="cls-1" points="202 0 101 26.14 0 0 202 0"/>
  <polygon class="cls-1" points="202 52.28 202 74.85 101 101 0 74.85 0 52.28 202 52.28"/>
  <polygon class="cls-1" points="202 127.14 202 149.71 101 175.86 0 149.71 0 127.14 202 127.14"/>
  <polygon class="cls-3" points="101 175.86 0 202 0 149.71 101 175.86"/>
  <polygon class="cls-3" points="101 26.14 0 52.28 0 0 101 26.14"/>
  <polygon class="cls-3" points="101 101 0 127.14 0 74.85 101 101"/>
  <polygon class="cls-2" points="202 202 0 202 101 175.86 202 202"/>
  <polygon class="cls-2" points="202 149.71 202 202 101 175.86 202 149.71"/>
  <polygon class="cls-2" points="202 52.28 0 52.28 101 26.14 202 52.28"/>
  <polygon class="cls-2" points="202 0 202 52.28 101 26.14 202 0"/>
  <polygon class="cls-2" points="202 127.14 0 127.14 101 101 202 127.14"/>
  <polygon class="cls-2" points="202 74.85 202 127.14 101 101 202 74.85"/>
</svg>