<?xml version="1.0" encoding="UTF-8"?>
<svg id="Calque_1" data-name="Calque 1" xmlns="http://www.w3.org/2000/svg" viewBox="0 0 201.82 201.82">
  <defs>
    <style>
      .cls-1 {
        fill: #000;
      }

      .cls-1, .cls-2, .cls-3, .cls-4, .cls-5 {
        stroke-width: 0px;
      }

      .cls-2 {
        fill: #999;
      }

      .cls-3 {
        fill: #333;
      }

      .cls-4 {
        fill: #636;
      }

      .cls-5 {
        fill: #fff;
      }
    </style>
  </defs>
  <rect class="cls-4" x="38.41" y="38.6" width="124.99" height="124.99"/>
  <path class="cls-3" d="M124.99,163.59v38.41H0v-76.83h67.45c10.61,0,19.21,8.6,19.21,19.21,0,5.31-2.15,10.11-5.63,13.58-3.47,3.48-8.27,5.63-13.58,5.63h57.54Z"/>
  <g>
    <polygon class="cls-1" points="76.83 0 76.83 38.6 38.41 38.6 38.41 125.17 0 125.17 0 0 76.83 0"/>
    <path class="cls-1" d="M76.83,38.6v28.85c0,10.61-8.6,19.21-19.21,19.21-5.31,0-10.11-2.15-13.58-5.63-3.48-3.47-5.63-8.27-5.63-13.58v-28.85h38.42Z"/>
  </g>
  <path class="cls-2" d="M201.82,0v76.83h-67.45c-10.61,0-19.21-8.6-19.21-19.21,0-5.31,2.15-10.11,5.63-13.58,2.87-2.88,6.66-4.85,10.89-5.44.88-.13-.36,0,.55,0h-55.4V0h124.99Z"/>
  <path class="cls-5" d="M163.41,76.83h38.41s0,124.99,0,124.99h-76.83s0-67.45,0-67.45c0-10.61,8.6-19.21,19.21-19.21,5.31,0,10.11,2.15,13.58,5.63,3.48,3.47,5.63,8.27,5.63,13.58v-57.54Z"/>
</svg>